<?xml version="1.0" encoding="utf-8"?>
<!-- Generator: Adobe Illustrator 18.0.0, SVG Export Plug-In . SVG Version: 6.00 Build 0)  -->
<!DOCTYPE svg PUBLIC "-//W3C//DTD SVG 1.1//EN" "http://www.w3.org/Graphics/SVG/1.1/DTD/svg11.dtd">
<svg version="1.1" id="Layer_1" xmlns="http://www.w3.org/2000/svg" xmlns:xlink="http://www.w3.org/1999/xlink" x="0px" y="0px"
	 viewBox="0 0 1400 980" enable-background="new 0 0 1400 980" xml:space="preserve">
<g>
	<g>
		<path fill="#FCD32B" d="M333.9,114.3h6.1v19.6h3v-24.6C340.8,111.9,337.5,114.3,333.9,114.3z"/>
		<path fill="#FCD32B" d="M306.2,101.5h-12.6c-7.2,0-13,5.8-13,13v26.5v1.1c0,12.1,5.5,17.9,14.9,25.6v-53.4H306l1.6-11.1
			C307.6,102.7,306.1,102.1,306.2,101.5z"/>
		<path fill="#FCC1A2" d="M322.7,173.4h-20c-4,0-7.3-3.3-7.3-7.3v-51.7H340v41.9C340,165.7,332.2,173.4,322.7,173.4z"/>
		<path fill="#EDC315" d="M345.9,95.2h-42c-4.7,0-8.5,3.8-8.5,8.5v10.6h38.1c6.9,0,12.4-5.6,12.4-12.4V95.2z"/>
		<path fill="#E8AF95" d="M295.4,129h-0.3c-3.3,0-6,2.7-6,6v6.5c0,3.3,2.7,6,6,6h0.3V129z"/>
		<path fill="#E8AF95" d="M340,129.3v17.9c2.4-0.8,4.1-3,4.1-5.7V135C344.1,132.3,342.3,130.1,340,129.3z"/>
		<g>
			<path fill="#FCC1A2" d="M393.8,285c-0.3,0-0.6,0-0.9-0.1l-19.9-3c-1.2-0.2-2.4-0.7-3.3-1.6l-28.2-27.1c-1-1-1.7-2.3-1.8-3.7
				l-5.8-55.7c-0.3-3.3,2-6.2,5.3-6.6c3.3-0.3,6.2,2,6.6,5.3l5.6,53.6l25.2,24.2l18,2.7c3.3,0.5,5.5,3.6,5,6.8
				C399.3,282.9,396.8,285,393.8,285z"/>
		</g>
		<path fill="#404040" d="M315.8,299.5h-32V273h56.4v2C340.2,288.5,329.3,299.5,315.8,299.5z"/>
		<g>
			<polygon fill="#404040" points="259.5,419.5 245.3,412.1 275.5,354 285.1,289.7 300.9,292 290.9,359 			"/>
		</g>
		<g>
			<polygon fill="#404040" points="354.2,417.1 341.9,344.6 319.8,294 334.4,287.6 357.3,340 370,414.4 			"/>
		</g>
		<path fill="#A5AAAB" d="M283.8,273v9.2h55.4c0.7-2.3,1.1-4.7,1.1-7.2v-2H283.8z"/>
		<rect x="308.4" y="273" fill="#FFFFFF" width="15.3" height="9.2"/>
		<rect x="283.8" y="187.2" fill="#3BBEBD" width="56.4" height="85.8"/>
		<path fill="#FCC1A2" d="M314.2,196.5h-1.8c-3.8,0-6.8-3.1-6.8-6.8v-16.3h13.6v18.1C319.2,194.2,317,196.5,314.2,196.5z"/>
		<rect x="305.6" y="173.4" fill="#DDA38A" width="13.6" height="6.1"/>
		<g>
			<path fill="#FCC1A2" d="M250.4,310.5c-2.7,0-5.2-1.9-5.8-4.6l-5-21.6c-0.2-0.8-0.2-1.5-0.1-2.3l7.4-46.5c0.1-0.9,0.5-1.8,1-2.5
				l31-43.3c1.9-2.7,5.7-3.3,8.4-1.4c2.7,1.9,3.3,5.7,1.4,8.4l-30.2,42.1l-7,43.9l4.8,20.4c0.8,3.2-1.3,6.5-4.5,7.2
				C251.3,310.4,250.9,310.5,250.4,310.5z"/>
		</g>
		<path fill="#404040" d="M266.1,442.9l-28.9-14.2l8.9-18.2l10.7,5.3C266.9,420.7,271,432.9,266.1,442.9L266.1,442.9z"/>
		<path fill="#404040" d="M390.1,429.9l-31.5,7l-4.4-19.8l11.7-2.6C376.9,412,387.7,418.9,390.1,429.9L390.1,429.9z"/>
		<g>
			<path fill="#FCC1A2" d="M393.8,285c-0.3,0-0.6,0-0.9-0.1l-19.9-3c-1.2-0.2-2.4-0.7-3.3-1.6l-28.2-27.1c-1-1-1.7-2.3-1.8-3.7
				l-5.8-55.7c-0.3-3.3,2-6.2,5.3-6.6c3.3-0.3,6.2,2,6.6,5.3l5.6,53.6l25.2,24.2l18,2.7c3.3,0.5,5.5,3.6,5,6.8
				C399.3,282.9,396.8,285,393.8,285z"/>
		</g>
		<path fill="#39B5B3" d="M345.9,192.6c-0.3-3.3-3.3-5.7-6.6-5.3c-3.3,0.3-5.7,3.3-5.3,6.6l2.3,21.6l12-0.8L345.9,192.6z"/>
		<path fill="#3BBEBD" d="M275.4,215.3l13.3-18.6c1.9-2.7,1.3-6.4-1.4-8.4c-2.7-1.9-6.4-1.3-8.4,1.4l-12.8,17.8L275.4,215.3z"/>
	</g>
	<g>
		<g>
			<path fill="#FCC1A2" d="M635.7,302.4c-1.4,0-2.8-0.5-4-1.5L612,283.5c-0.6-0.5-1.1-1.2-1.5-2l-14-30.1c-0.5-1-0.6-2.1-0.5-3.2
				l6.1-55.7c0.4-3.3,3.3-5.7,6.6-5.3c3.3,0.4,5.7,3.3,5.3,6.6l-5.9,54.1l12.8,27.4l18.8,16.5c2.5,2.2,2.7,6,0.5,8.5
				C639,301.7,637.4,302.4,635.7,302.4z"/>
		</g>
		<path fill="#39B5B3" d="M611.5,216l2.4-22.2c0.4-3.3-2-6.3-5.3-6.6c-2.6-0.3-5,1.1-6,3.3c-0.1,0.3-0.2,0.7-0.2,1l-2.6,22.3
			L611.5,216z"/>
		<path fill="#FCD32B" d="M601.9,114.3h6.1v19.6h3v-24.7C608.8,111.8,605.5,114.3,601.9,114.3z"/>
		<path fill="#FCD32B" d="M574.2,101.5h-12.6c-7.2,0-13,5.8-13,13v26.5v1.1c0,12.1,5.5,17.9,14.9,25.6v-53.4H574l1.6-11.1
			C575.6,102.7,574.1,102.1,574.2,101.5z"/>
		<path fill="#FCC1A2" d="M590.7,173.4h-20c-4,0-7.3-3.3-7.3-7.3v-51.7H608v41.9C608,165.7,600.2,173.4,590.7,173.4z"/>
		<path fill="#EDC315" d="M613.9,95.2h-42c-4.7,0-8.5,3.8-8.5,8.5v10.6h38.1c6.9,0,12.4-5.6,12.4-12.4V95.2z"/>
		<path fill="#E8AF95" d="M563.4,129h-0.3c-3.3,0-6,2.7-6,6v6.5c0,3.3,2.7,6,6,6h0.3V129z"/>
		<path fill="#E8AF95" d="M608,129.3v17.9c2.4-0.8,4.1-3,4.1-5.7V135C612.1,132.3,610.3,130.1,608,129.3z"/>
		<path fill="#404040" d="M583.8,299.5h-32V273h56.4v2C608.2,288.5,597.3,299.5,583.8,299.5z"/>
		<g>
			<polygon fill="#404040" points="518.1,413.9 505.3,404.3 543.6,353.4 552.3,289.8 568.1,291.9 558.9,359.7 			"/>
		</g>
		<g>
			<polygon fill="#404040" points="610.8,419.4 604.2,346.4 580,294.2 594.5,287.5 619.9,342.2 626.8,417.9 			"/>
		</g>
		<path fill="#A5AAAB" d="M551.8,273v9.2h55.4c0.7-2.3,1.1-4.7,1.1-7.2v-2H551.8z"/>
		<rect x="576.4" y="273" fill="#FFFFFF" width="15.3" height="9.2"/>
		<rect x="551.8" y="187.2" fill="#3BBEBD" width="56.4" height="85.8"/>
		<path fill="#FCC1A2" d="M582.2,196.5h-1.8c-3.8,0-6.8-3.1-6.8-6.8v-16.3h13.6v18.1C587.2,194.2,585,196.5,582.2,196.5z"/>
		<rect x="573.6" y="173.4" fill="#DDA38A" width="13.6" height="6.1"/>
		<g>
			<path fill="#FCC1A2" d="M548.6,310.5c-1.9,0-3.7-0.9-4.9-2.5l-12.6-17.5c-0.5-0.7-0.8-1.5-1-2.3l-7.7-38.2
				c-0.2-1.2-0.1-2.4,0.4-3.5l23.4-55.7c1.3-3.1,4.8-4.5,7.9-3.2c3.1,1.3,4.5,4.8,3.2,7.9l-22.7,54l7,35.1l11.8,16.4
				c1.9,2.7,1.3,6.4-1.4,8.4C551.1,310.1,549.8,310.5,548.6,310.5z"/>
		</g>
		<path fill="#404040" d="M519.2,439.6l-25.8-19.3l12.1-16.3l9.6,7.1C524.1,417.9,525.9,430.7,519.2,439.6L519.2,439.6z"/>
		<path fill="#404040" d="M645,435.5l-32.1,3.3l-2.1-20.2l11.9-1.2C633.9,416.3,643.9,424.4,645,435.5L645,435.5z"/>
		<path fill="#3BBEBD" d="M554.1,187.7c-3.1-1.3-6.6,0.1-7.9,3.2l-8.5,20.2l10.8,5.3l8.8-20.9C558.6,192.5,557.2,188.9,554.1,187.7z
			"/>
	</g>
	<g>
		<g>
			<path fill="#FCC1A2" d="M1118.6,303.2c-3.3,0-6-2.7-6-6v-48.3c0-0.2,0-0.4,0-0.6l6.1-55.7c0.4-3.3,3.3-5.7,6.6-5.3
				c3.3,0.4,5.7,3.3,5.3,6.6l-6,55.4v48C1124.6,300.5,1121.9,303.2,1118.6,303.2z"/>
		</g>
		<path fill="#39B5B3" d="M1125.3,187.2c-3.3-0.4-6.3,2-6.6,5.3l-2.5,23.1l11.9,1.9l2.6-23.7C1131,190.5,1128.6,187.6,1125.3,187.2z
			"/>
		<path fill="#FCD32B" d="M1118.6,114.3h6.1v19.6h3v-24.3C1125.5,112.2,1122.2,114.3,1118.6,114.3z"/>
		<path fill="#FCD32B" d="M1090.9,101.5h-12.6c-7.2,0-13,5.8-13,13v26.5v1.1c0,12.1,5.5,17.9,14.9,25.6v-53.4h10.5l1.6-11.1
			C1092.3,102.7,1090.8,102.1,1090.9,101.5z"/>
		<path fill="#FCC1A2" d="M1107.5,173.4h-20c-4,0-7.3-3.3-7.3-7.3v-51.7h44.6v41.9C1124.7,165.7,1117,173.4,1107.5,173.4z"/>
		<path fill="#EDC315" d="M1130.6,95.2h-42c-4.7,0-8.5,3.8-8.5,8.5v10.6h38.1c6.9,0,12.4-5.6,12.4-12.4V95.2z"/>
		<path fill="#E8AF95" d="M1080.1,129h-0.3c-3.3,0-6,2.7-6,6v6.5c0,3.3,2.7,6,6,6h0.3V129z"/>
		<path fill="#E8AF95" d="M1124.7,129.3v17.9c2.4-0.8,4.1-3,4.1-5.7V135C1128.8,132.3,1127.1,130.1,1124.7,129.3z"/>
		<path fill="#404040" d="M1100.5,299.5h-32V273h56.4v2C1125,288.5,1114,299.5,1100.5,299.5z"/>
		<g>
			<polygon fill="#404040" points="1052,399.6 1040.5,388.4 1079.2,348.7 1068.2,293.1 1083.8,290 1096.6,353.8 			"/>
		</g>
		<g>
			<polygon fill="#404040" points="1110.3,419.3 1094.4,418 1100.4,347 1096,291.5 1111.9,290.2 1116.4,347 			"/>
		</g>
		<path fill="#A5AAAB" d="M1068.5,273v9.2h55.4c0.7-2.3,1.1-4.7,1.1-7.2v-2H1068.5z"/>
		<rect x="1093.1" y="273" fill="#FFFFFF" width="15.3" height="9.2"/>
		<rect x="1068.5" y="187.2" fill="#3BBEBD" width="56.4" height="85.8"/>
		<path fill="#FCC1A2" d="M1098.9,196.5h-1.8c-3.8,0-6.8-3.1-6.8-6.8v-16.3h13.6v18.1C1103.9,194.2,1101.7,196.5,1098.9,196.5z"/>
		<rect x="1090.3" y="173.4" fill="#DDA38A" width="13.6" height="6.1"/>
		<g>
			<path fill="#FCC1A2" d="M1102.4,303.1c-1,0-2-0.2-2.9-0.8l-18.1-10.1c-0.7-0.4-1.3-0.9-1.8-1.5l-27.5-34.6
				c-1.1-1.4-1.5-3.2-1.2-4.9l11.7-59.2c0.6-3.3,3.8-5.4,7-4.7c3.3,0.6,5.4,3.8,4.7,7l-11.2,56.5l25,31.5l17.1,9.5
				c2.9,1.6,3.9,5.3,2.3,8.2C1106.5,302,1104.5,303.1,1102.4,303.1z"/>
		</g>
		<path fill="#404040" d="M1049.3,424.8l-22.3-23.2l14.6-14.1l8.3,8.6C1057.6,404.1,1057.3,417,1049.3,424.8L1049.3,424.8z"/>
		<path fill="#404040" d="M1125.5,439.8l-32.2-1.7l1.1-20.3l11.9,0.6C1117.5,419.1,1126.1,428.7,1125.5,439.8L1125.5,439.8z"/>
		<path fill="#3BBEBD" d="M1058.3,214.1l11.6,3l4.5-22.8c0.6-3.3-1.5-6.4-4.7-7c-3.2-0.6-6.4,1.5-7,4.7L1058.3,214.1z"/>
	</g>
	<g>
		<g>
			<path fill="#FCC1A2" d="M334.7,742.3c-3.3,0-6-2.7-6-6V688c0-0.2,0-0.4,0-0.6l6.1-55.7c0.4-3.3,3.3-5.7,6.6-5.3
				c3.3,0.4,5.7,3.3,5.3,6.6l-6,55.4v48C340.7,739.6,338,742.3,334.7,742.3z"/>
		</g>
		<path fill="#39B5B3" d="M341.4,626.3c-2.5-0.3-4.8,1-5.9,3.1c-0.2,0.5-0.4,1.1-0.4,1.7l-2.6,24.1l11.6,1.9l2.6-24.3
			C347,629.6,344.7,626.7,341.4,626.3z"/>
		<path fill="#FCD32B" d="M334.7,553.4h6.1V573h3v-25C341.5,550.6,338.3,553.4,334.7,553.4z"/>
		<path fill="#FCD32B" d="M307,540.6h-12.6c-7.2,0-13,5.8-13,13v26.5v1.1c0,12.1,5.5,17.9,14.9,25.6v-53.4h10.5l1.6-11.1
			C308.4,541.7,306.9,541.2,307,540.6z"/>
		<path fill="#FCC1A2" d="M323.5,612.5h-20c-4,0-7.3-3.3-7.3-7.3v-51.7h44.6v41.9C340.7,604.7,333,612.5,323.5,612.5z"/>
		<path fill="#EDC315" d="M346.6,534.3h-42c-4.7,0-8.5,3.8-8.5,8.5v10.6h38.1c6.9,0,12.4-5.6,12.4-12.4V534.3z"/>
		<path fill="#E8AF95" d="M296.1,568.1h-0.3c-3.3,0-6,2.7-6,6v6.5c0,3.3,2.7,6,6,6h0.3V568.1z"/>
		<path fill="#E8AF95" d="M340.7,568.4v17.9c2.4-0.8,4.1-3,4.1-5.7v-6.5C344.8,571.4,343.1,569.2,340.7,568.4z"/>
		<path fill="#404040" d="M316.5,738.6h-32v-26.5H341v2C341,727.6,330,738.6,316.5,738.6z"/>
		<g>
			<polygon fill="#404040" points="294.2,831.3 282.1,820.8 319.3,777.7 286.6,734.8 299.3,725.1 339.8,778.3 			"/>
		</g>
		<g>
			<polygon fill="#404040" points="317,859.4 301.3,856 316.4,785.5 312,730.6 328,729.3 332.5,786.6 			"/>
		</g>
		<path fill="#A5AAAB" d="M284.6,712.1v9.2h55.4c0.7-2.3,1.1-4.7,1.1-7.2v-2H284.6z"/>
		<rect x="309.2" y="712.1" fill="#FFFFFF" width="15.3" height="9.2"/>
		<rect x="284.6" y="626.3" fill="#3BBEBD" width="56.4" height="85.8"/>
		<g>
			<path fill="#FCC1A2" d="M329.6,734.9c-0.6,0-1.3-0.1-1.9-0.3l-20.4-6.9c-0.7-0.2-1.4-0.6-1.9-1.1L269,696.1
				c-1.7-1.4-2.4-3.6-2-5.8l11.7-59.2c0.6-3.3,3.8-5.4,7-4.7c3.3,0.6,5.4,3.8,4.7,7l-11,55.8l32.7,27.5l19.3,6.5
				c3.1,1.1,4.8,4.5,3.8,7.6C334.4,733.4,332.1,734.9,329.6,734.9z"/>
		</g>
		<path fill="#FCC1A2" d="M314.9,635.6h-1.8c-3.8,0-6.8-3.1-6.8-6.8v-16.3H320v18.1C320,633.3,317.7,635.6,314.9,635.6z"/>
		<rect x="306.4" y="612.5" fill="#DDA38A" width="13.6" height="6.1"/>
		<path fill="#404040" d="M294.8,856.6l-25.1-20.3l12.7-15.8l9.3,7.5C300.5,835.1,301.9,847.9,294.8,856.6L294.8,856.6z"/>
		<path fill="#404040" d="M329.2,880.9l-31.6-6.4l4-19.9l11.7,2.4C324.3,859.2,331.4,869.9,329.2,880.9L329.2,880.9z"/>
		<path fill="#3BBEBD" d="M274.2,653.9l11.6,3l4.6-23.5c0.6-3.3-1.5-6.4-4.7-7c-3.3-0.6-6.4,1.5-7,4.7L274.2,653.9z"/>
	</g>
	<g>
		<g>
			<path fill="#FCC1A2" d="M800,732.4c-0.9,0-1.9-0.2-2.7-0.7c-2.9-1.5-4.1-5.1-2.6-8.1l8.3-16.1l9.7-25.2c0.2-0.6,0.5-1.1,0.9-1.5
				l41-52c2.1-2.6,5.8-3,8.4-1s3,5.8,1,8.4l-40.5,51.3l-9.5,24.6c-0.1,0.2-0.2,0.4-0.3,0.6l-8.5,16.4
				C804.2,731.2,802.2,732.4,800,732.4z"/>
		</g>
		<path fill="#39B5B3" d="M863,627.7c-2.6-2.1-6.4-1.6-8.4,1l-20.4,25.9l6.3,7.8l10.1-9.2l13.4-17
			C866.1,633.5,865.6,629.8,863,627.7z"/>
		<path fill="#FCD32B" d="M853.3,553.4h6.1V573h3v-24.6C860.1,551,856.9,553.4,853.3,553.4z"/>
		<path fill="#FCD32B" d="M825.6,540.6H813c-7.2,0-13,5.8-13,13v26.5v1.1c0,12.1,5.5,17.9,14.9,25.6v-53.4h10.5l1.6-11.1
			C827,541.7,825.5,541.2,825.6,540.6z"/>
		<path fill="#FCC1A2" d="M842.1,612.5h-20c-4,0-7.3-3.3-7.3-7.3v-51.7h44.6v41.9C859.3,604.7,851.6,612.5,842.1,612.5z"/>
		<path fill="#EDC315" d="M865.2,534.3h-42c-4.7,0-8.5,3.8-8.5,8.5v10.6h38.1c6.9,0,12.4-5.6,12.4-12.4V534.3z"/>
		<path fill="#E8AF95" d="M814.7,568.1h-0.3c-3.3,0-6,2.7-6,6v6.5c0,3.3,2.7,6,6,6h0.3V568.1z"/>
		<path fill="#E8AF95" d="M859.3,568.4v17.9c2.4-0.8,4.1-3,4.1-5.7v-6.5C863.4,571.4,861.7,569.2,859.3,568.4z"/>
		<path fill="#404040" d="M835.1,738.6h-32v-26.5h56.4v2C859.6,727.6,848.6,738.6,835.1,738.6z"/>
		<g>
			<polygon fill="#404040" points="847.7,846.4 832.2,842.3 852.2,767.7 807,736.5 816.1,723.3 870.6,761 			"/>
		</g>
		<g>
			<polygon fill="#404040" points="794.9,853.3 780.7,845.9 817.5,775 830.9,727.7 846.3,732.1 832.4,781 			"/>
		</g>
		<path fill="#A5AAAB" d="M803.2,712.1v9.2h55.4c0.7-2.3,1.1-4.7,1.1-7.2v-2H803.2z"/>
		<rect x="827.8" y="712.1" fill="#FFFFFF" width="15.3" height="9.2"/>
		<rect x="803.2" y="626.3" fill="#3BBEBD" width="56.4" height="85.8"/>
		<g>
			<path fill="#FCC1A2" d="M859.6,718.8c-0.8,0-1.5-0.1-2.3-0.4l-16.6-6.7l-39.9-16.9c-2.2-0.9-3.7-3.1-3.7-5.5v-57c0-3.3,2.7-6,6-6
				s6,2.7,6,6v53l36.2,15.3l16.5,6.7c3.1,1.2,4.5,4.7,3.3,7.8C864.2,717.4,862,718.8,859.6,718.8z"/>
		</g>
		<path fill="#FCC1A2" d="M833.5,635.6h-1.8c-3.8,0-6.8-3.1-6.8-6.8v-16.3h13.6v18.1C838.6,633.3,836.3,635.6,833.5,635.6z"/>
		<rect x="824.9" y="612.5" fill="#DDA38A" width="13.6" height="6.1"/>
		<path fill="#404040" d="M801.2,877.8l-29.2-13.7l8.6-18.4l10.8,5.1C801.6,855.6,806,867.7,801.2,877.8L801.2,877.8z"/>
		<path fill="#404040" d="M866.1,859.6l-32.1,2.8l-1.7-20.2l11.9-1C855.3,840.2,865.1,848.5,866.1,859.6L866.1,859.6z"/>
		<path fill="#3BBEBD" d="M797.2,656.5l12,0.7v-25c0-3.3-2.7-6-6-6s-6,2.7-6,6V656.5z"/>
	</g>
	<g>
		<path fill="#FCD32B" d="M593.2,553.4h6.1V573h3v-24.8C600.1,550.8,596.8,553.4,593.2,553.4z"/>
		<g>
			<path fill="#39B5B3" d="M554,736.1c-0.6,0-1.1-0.1-1.7-0.2c-3.2-0.9-5-4.2-4.1-7.4l6.5-22.4c0.1-0.4,0.3-0.8,0.4-1.1l14.2-27.1
				l25.1-48.4c1.5-2.9,5.1-4.1,8.1-2.6c2.9,1.5,4.1,5.1,2.6,8.1L580,683.5L566.1,710l-6.3,21.8C559,734.4,556.6,736.1,554,736.1z"/>
		</g>
		<path fill="#FCD32B" d="M565.5,540.6H553c-7.2,0-13,5.8-13,13v26.5v1.1c0,12.1,5.5,17.9,14.9,25.6v-53.4h10.5l1.6-11.1
			C566.9,541.7,565.4,541.2,565.5,540.6z"/>
		<path fill="#FCC1A2" d="M582,612.5h-20c-4,0-7.3-3.3-7.3-7.3v-51.7h44.6v41.9C599.2,604.7,591.5,612.5,582,612.5z"/>
		<path fill="#EDC315" d="M605.1,534.3h-42c-4.7,0-8.5,3.8-8.5,8.5v10.6h38.1c6.9,0,12.4-5.6,12.4-12.4V534.3z"/>
		<path fill="#E8AF95" d="M554.6,568.1h-0.3c-3.3,0-6,2.7-6,6v6.5c0,3.3,2.7,6,6,6h0.3V568.1z"/>
		<path fill="#E8AF95" d="M599.2,568.4v17.9c2.4-0.8,4.1-3,4.1-5.7v-6.5C603.3,571.4,601.6,569.2,599.2,568.4z"/>
		<path fill="#404040" d="M575.1,738.6h-32v-26.5h56.4v2C599.5,727.6,588.6,738.6,575.1,738.6z"/>
		<g>
			<polygon fill="#404040" points="550.5,860.8 535.7,854.6 569,776.2 570.5,729.7 586.5,730.2 584.9,779.7 			"/>
		</g>
		<path fill="#A5AAAB" d="M543.1,712.1v9.2h55.4c0.7-2.3,1.1-4.7,1.1-7.2v-2H543.1z"/>
		<rect x="567.7" y="712.1" fill="#FFFFFF" width="15.3" height="9.2"/>
		<rect x="543.1" y="626.3" fill="#3BBEBD" width="56.4" height="85.8"/>
		<g>
			<path fill="#FCC1A2" d="M598.5,728c-0.4,0-0.8,0-1.2-0.1l-23.1-4.6c-1-0.2-2-0.7-2.8-1.4l-32.2-28.2c-1.3-1.1-2-2.8-2-4.5v-57
				c0-3.3,2.7-6,6-6s6,2.7,6,6v54.3l29,25.4l21.6,4.3c3.2,0.6,5.4,3.8,4.7,7.1C603.8,726.1,601.3,728,598.5,728z"/>
		</g>
		<path fill="#FCC1A2" d="M573.5,635.6h-1.8c-3.8,0-6.8-3.1-6.8-6.8v-16.3h13.6v18.1C578.5,633.3,576.3,635.6,573.5,635.6z"/>
		<rect x="564.9" y="612.5" fill="#DDA38A" width="13.6" height="6.1"/>
		<path fill="#404040" d="M557.7,884.8l-29.4-13.1l8.3-18.5l10.9,4.9C557.6,862.6,562.2,874.6,557.7,884.8L557.7,884.8z"/>
		<path fill="#404040" d="M585.4,857.3l-32.2-1.6l1-20.3l11.9,0.6C577.3,836.6,585.9,846.2,585.4,857.3L585.4,857.3z"/>
		<g>
			<polygon fill="#404040" points="572.3,840.7 557.4,834.9 583.6,766.9 546.4,736.1 556.6,723.8 602.7,761.9 			"/>
		</g>
		<path fill="#3BBEBD" d="M537.1,656.5l12,0.7v-25c0-3.3-2.7-6-6-6s-6,2.7-6,6V656.5z"/>
	</g>
	<g>
		<g>
			<path fill="#FCC1A2" d="M1048.9,732.2c-0.9,0-1.9-0.2-2.7-0.7c-2.9-1.5-4.1-5.1-2.6-8.1l8.3-16.1l9.7-25.2
				c0.2-0.6,0.5-1.1,0.9-1.5l41-52c2.1-2.6,5.8-3,8.4-1s3,5.8,1,8.4l-40.5,51.3l-9.5,24.6c-0.1,0.2-0.2,0.4-0.3,0.6l-8.5,16.4
				C1053.2,731,1051.1,732.2,1048.9,732.2z"/>
		</g>
		<path fill="#39B5B3" d="M1112,627.6c-2.6-2.1-6.4-1.6-8.4,1l-15.9,20.2l7.5,7.3l9.3-9.3l8.5-10.8
			C1115,633.4,1114.6,629.6,1112,627.6z"/>
		<path fill="#FCD32B" d="M1101.5,553.4h6.1V573h3v-24.7C1108.3,550.9,1105.1,553.4,1101.5,553.4z"/>
		<path fill="#FCD32B" d="M1073.8,540.6h-12.6c-7.2,0-13,5.8-13,13v26.5v1.1c0,12.1,5.5,17.9,14.9,25.6v-53.4h10.5l1.6-11.1
			C1075.2,541.7,1073.7,541.2,1073.8,540.6z"/>
		<path fill="#FCC1A2" d="M1090.3,612.5h-20c-4,0-7.3-3.3-7.3-7.3v-51.7h44.6v41.9C1107.5,604.7,1099.8,612.5,1090.3,612.5z"/>
		<path fill="#EDC315" d="M1113.4,534.3h-42c-4.7,0-8.5,3.8-8.5,8.5v10.6h38.1c6.9,0,12.4-5.6,12.4-12.4V534.3z"/>
		<path fill="#E8AF95" d="M1062.9,568.1h-0.3c-3.3,0-6,2.7-6,6v6.5c0,3.3,2.7,6,6,6h0.3V568.1z"/>
		<path fill="#E8AF95" d="M1107.5,568.4v17.9c2.4-0.8,4.1-3,4.1-5.7v-6.5C1111.6,571.4,1109.9,569.2,1107.5,568.4z"/>
		<path fill="#404040" d="M1083.3,738.6h-32v-26.5h56.4v2C1107.8,727.6,1096.8,738.6,1083.3,738.6z"/>
		<g>
			<polygon fill="#404040" points="1126.1,840.3 1102.8,769.4 1055.2,736.5 1064.3,723.3 1116.3,759.3 1141.3,835.3 			"/>
		</g>
		<g>
			<polygon fill="#404040" points="1035.4,848.8 1022.1,839.9 1065.8,774.6 1079.1,727.7 1094.5,732.1 1080.5,781.4 			"/>
		</g>
		<path fill="#A5AAAB" d="M1051.4,712.1v9.2h55.4c0.7-2.3,1.1-4.7,1.1-7.2v-2H1051.4z"/>
		<rect x="1076" y="712.1" fill="#FFFFFF" width="15.3" height="9.2"/>
		<rect x="1051.4" y="626.3" fill="#3BBEBD" width="56.4" height="85.8"/>
		<g>
			<path fill="#FCC1A2" d="M1107.8,718.8c-0.8,0-1.5-0.1-2.3-0.4l-16.6-6.7l-39.9-16.9c-2.2-0.9-3.7-3.1-3.7-5.5v-57
				c0-3.3,2.7-6,6-6s6,2.7,6,6v53l36.2,15.3l16.5,6.7c3.1,1.2,4.5,4.7,3.3,7.8C1112.4,717.4,1110.2,718.8,1107.8,718.8z"/>
		</g>
		<path fill="#FCC1A2" d="M1081.8,635.6h-1.8c-3.8,0-6.8-3.1-6.8-6.8v-16.3h13.6v18.1C1086.8,633.3,1084.5,635.6,1081.8,635.6z"/>
		<rect x="1073.2" y="612.5" fill="#DDA38A" width="13.6" height="6.1"/>
		<path fill="#404040" d="M1043.9,871.1l-29.5-12.9l8.1-18.6l10.9,4.8C1043.7,848.9,1048.4,860.8,1043.9,871.1L1043.9,871.1z"/>
		<path fill="#404040" d="M1162.8,848l-30.4,10.6l-6.6-19.2l11.3-3.9C1147.6,831.8,1159.2,837.4,1162.8,848L1162.8,848z"/>
		<path fill="#3BBEBD" d="M1057.4,632.3c0-3.3-2.7-6-6-6c-3.3,0-6,2.7-6,6v25l12-0.2V632.3z"/>
	</g>
	<g>
		<path fill="#FCD32B" d="M873.8,114.3h6.1v19.6h3v-24.7C880.7,111.8,877.5,114.3,873.8,114.3z"/>
		<path fill="#FCD32B" d="M846.2,101.5h-12.6c-7.2,0-13,5.8-13,13v26.5v1.1c0,12.1,5.5,17.9,14.9,25.6v-53.4H846l1.6-11.1
			C847.5,102.7,846,102.1,846.2,101.5z"/>
		<path fill="#FCC1A2" d="M862.7,173.4h-20c-4,0-7.3-3.3-7.3-7.3v-51.7h44.6v41.9C879.9,165.7,872.2,173.4,862.7,173.4z"/>
		<path fill="#EDC315" d="M885.8,95.2h-42c-4.7,0-8.5,3.8-8.5,8.5v10.6h38.1c6.9,0,12.4-5.6,12.4-12.4V95.2z"/>
		<path fill="#E8AF95" d="M835.3,129H835c-3.3,0-6,2.7-6,6v6.5c0,3.3,2.7,6,6,6h0.3V129z"/>
		<path fill="#E8AF95" d="M879.9,129.3v17.9c2.4-0.8,4.1-3,4.1-5.7V135C884,132.3,882.3,130.1,879.9,129.3z"/>
		<g>
			<path fill="#FCC1A2" d="M885.8,309.7c-2.2,0-4.4-1.3-5.4-3.4l-12-25.2c-0.4-0.8-0.6-1.7-0.6-2.6v-29.5c0-0.2,0-0.4,0-0.6
				l6.1-55.7c0.4-3.3,3.3-5.7,6.6-5.3c3.3,0.4,5.7,3.3,5.3,6.6l-6,55.4v27.9l11.4,24c1.4,3,0.1,6.6-2.9,8
				C887.5,309.5,886.7,309.7,885.8,309.7z"/>
		</g>
		<path fill="#404040" d="M855.7,299.5h-32V273h56.4v2C880.2,288.5,869.2,299.5,855.7,299.5z"/>
		<g>
			<polygon fill="#404040" points="768.7,393.6 759.7,380.4 805.3,349.7 824.5,288.4 839.8,293.2 818.8,359.8 			"/>
		</g>
		<g>
			<polygon fill="#404040" points="882.9,419.1 867,418.1 871.7,344.1 851.7,293.8 866.6,287.9 887.9,341.6 			"/>
		</g>
		<path fill="#A5AAAB" d="M823.8,273v9.2h55.4c0.7-2.3,1.1-4.7,1.1-7.2v-2H823.8z"/>
		<rect x="848.3" y="273" fill="#FFFFFF" width="15.3" height="9.2"/>
		<rect x="823.8" y="187.2" fill="#3BBEBD" width="56.4" height="85.8"/>
		<path fill="#FCC1A2" d="M854.1,196.5h-1.8c-3.8,0-6.8-3.1-6.8-6.8v-16.3h13.6v18.1C859.2,194.2,856.9,196.5,854.1,196.5z"/>
		<rect x="845.5" y="173.4" fill="#DDA38A" width="13.6" height="6.1"/>
		<g>
			<path fill="#FCC1A2" d="M839.5,313.1c-1.8,0-3.5-0.8-4.7-2.3L819,290.7c-0.4-0.5-0.7-1.1-1-1.8l-11.7-34.6
				c-0.3-1-0.4-2.1-0.2-3.1l11.7-59.2c0.6-3.3,3.8-5.4,7-4.7c3.3,0.6,5.4,3.8,4.7,7L818.2,252l10.9,32.1l15.1,19.3
				c2,2.6,1.6,6.4-1,8.4C842.1,312.7,840.8,313.1,839.5,313.1z"/>
		</g>
		<path fill="#404040" d="M762.5,417.8L744,391.5l16.6-11.7l6.9,9.8C773.9,398.7,771.7,411.4,762.5,417.8L762.5,417.8z"/>
		<path fill="#404040" d="M897.6,439.8l-32.1-2.5l1.6-20.2L879,418C890.1,418.9,898.5,428.7,897.6,439.8L897.6,439.8z"/>
		<path fill="#3BBEBD" d="M813.6,213.6l11.6,3l4.4-22.2c0.6-3.3-1.5-6.4-4.7-7c-3.3-0.6-6.4,1.5-7,4.7L813.6,213.6z"/>
		<path fill="#39B5B3" d="M871.6,213.9l11.8,2.1l2.4-22.2c0.4-3.3-2-6.3-5.3-6.6c-3.3-0.4-6.3,2-6.6,5.3L871.6,213.9z"/>
	</g>
</g>
</svg>
